<?xml version="1.0" encoding="utf-8"?>
<!-- Generator: Adobe Illustrator 23.0.2, SVG Export Plug-In . SVG Version: 6.00 Build 0)  -->
<svg version="1.1" xmlns="http://www.w3.org/2000/svg" xmlns:xlink="http://www.w3.org/1999/xlink" x="0px" y="0px"
	 viewBox="0 0 374.2 97.5" style="enable-background:new 0 0 374.2 97.5;" xml:space="preserve">
<style type="text/css">
	.st0{fill:#1C1C1E;}
	.st1{fill:#F4A51F;}
	.st2{fill:#2B2628;stroke:#000000;stroke-miterlimit:10;}
	.st3{fill:#151515;}
	.st4{fill:#010101;}
	.st5{fill:#080808;}
	.st6{fill:#202020;}
	.st7{fill:#FFFFFF;}
	.st8{fill:#F8B02B;}
	.st9{opacity:0.3;}
	.st10{fill:#F4A421;}
	.st11{fill:#F8B850;}
	.st12{fill:#EF9C21;}
</style>
<g id="Layer_1">
	<g>
		<g>
			<path class="st0" d="M122.1,75.8c0,7.2-5.8,13.1-13,13.1c-6.2,0-11.1-4.4-12.8-9.5c-0.8-2.3,1-4.6,3.3-5.1c2.3-0.4,4,1.2,5.1,3.4
				c1.2,2.3,2.3,2.6,4.3,2.6c2.4,0,4.4-2,4.4-4.5c0-2.4-2-4.4-4.4-4.4c-3.5,0-6.8-1.4-9.2-3.8c-2.5-2.4-3.8-5.7-3.8-9.2
				c0-7.2,5.8-13,13-13c6.1,0,11.6,4.2,12.5,9c0.4,2.3-1,4.7-3.3,5.1c-2.3,0.5-4.3-1-5.1-3.2c-0.5-1.4-2-2.3-4.1-2.3
				c-2.4,0-4.4,2-4.4,4.4c0,2.4,2,4.4,4.4,4.4c3.5,0,6.8,1.4,9.2,3.8C120.8,69.1,122.1,72.3,122.1,75.8z"/>
			<path class="st0" d="M126.4,67c0-12.1,9.8-21.8,21.8-21.8c12.1,0,21.8,9.7,21.8,21.8c0,12-9.7,21.8-21.8,21.8
				C136.2,88.8,126.4,79,126.4,67z M135,67c0,7.2,5.9,13.2,13.2,13.2c7.3,0,13.2-6,13.2-13.2c0-7.3-5.9-13.2-13.2-13.2
				C140.9,53.8,135,59.7,135,67z"/>
			<path class="st0" d="M199.4,49.5c0,2.4-1.9,4.3-4.3,4.3h-7.6v30.7c0,2.4-1.9,4.3-4.3,4.3c-2.3,0-4.3-1.9-4.3-4.3V53.8H174
				c-2.3,0-4.3-1.9-4.3-4.3c0-2.3,1.9-4.3,4.3-4.3h4.8c-0.1-6.2,2.2-11.8,6.3-16c2.3-2.3,5-4.1,8.2-5.1c2.2-0.9,4.7,0.3,5.5,2.6
				c0.8,2.2-0.3,4.7-2.6,5.5c-1.8,0.6-3.5,1.7-5,3.1c-2.6,2.6-3.8,6-3.8,9.9h7.6C197.5,45.2,199.4,47.1,199.4,49.5z"/>
			<path class="st0" d="M234.1,49.5c0,2.3-1.9,4.3-4.3,4.3h-6.2v30.7c0,2.3-1.9,4.3-4.3,4.3c-2.3,0-4.3-2-4.3-4.3V53.9h-6.3
				c-2.3,0-4.3-2-4.3-4.3c0-2.3,1.9-4.3,4.3-4.3h6.3V27.9c0-2.3,1.9-4.3,4.3-4.3c2.4,0,4.3,1.9,4.3,4.3v17.4h6.2
				C232.1,45.3,234.1,47.2,234.1,49.5z"/>
			<path class="st1" d="M277,67.4v17c0,2.5-1.8,4.3-4.3,4.3c-1.7,0-4.2-1.8-4.2-4.3c-3.7,3.1-7.9,4.3-12.9,4.3
				c-12.2,0-22-9.1-22-21.4s9.7-22,22-22C267.8,45.4,277,55.1,277,67.4z M268.4,67.4c0-7.3-5.6-13.5-12.9-13.5
				c-7.3,0-13.5,6.2-13.5,13.5c0,7.3,6.2,12.9,13.5,12.9C262.9,80.2,268.4,74.6,268.4,67.4z"/>
			<path class="st1" d="M282.2,67c0-12.1,9.8-21.8,21.8-21.8c12.1,0,21.8,9.7,21.8,21.8c0,12-9.7,21.8-21.8,21.8
				C292,88.8,282.2,79,282.2,67z M290.8,67c0,7.2,5.9,13.2,13.2,13.2c7.3,0,13.2-6,13.2-13.2c0-7.3-5.9-13.2-13.2-13.2
				C296.7,53.8,290.8,59.7,290.8,67z"/>
			<path class="st1" d="M364.7,81.9c1.5,1.9,1.1,4.6-0.8,6c-0.8,0.6-1.7,1-2.6,1c-1.3,0-2.5-0.6-3.4-1.7L347.7,74l-10.2,13.1
				c-0.9,1-2.1,1.7-3.4,1.7c-1,0-1.8-0.3-2.6-1c-1.9-1.4-2.3-4.1-0.8-6L342.3,67l-11.5-14.9c-1.5-1.9-1.1-4.6,0.8-6.1
				c1.8-1.5,4.5-1.1,6,0.8L347.7,60l10.2-13.1c1.5-1.9,4.2-2.3,6-0.8c1.9,1.5,2.3,4.2,0.8,6.1L353.2,67L364.7,81.9z"/>
		</g>
	</g>
	<g>
		<path d="M297.4,6.9c1.5-0.3,3.9-0.6,6.4-0.6c3.5,0,5.8,0.6,7.4,2c1.4,1,2.3,2.7,2.3,4.8c0,2.6-1.7,4.9-4.6,6v0.1
			c2.6,0.6,5.6,2.8,5.6,6.8c0,2.3-0.9,4.1-2.3,5.4c-1.9,1.7-5,2.5-9.4,2.5c-2.4,0-4.3-0.2-5.4-0.3V6.9z M300.9,18h3.2
			c3.7,0,5.9-1.9,5.9-4.5c0-3.2-2.4-4.4-6-4.4c-1.6,0-2.5,0.1-3.1,0.2V18z M300.9,31c0.7,0.1,1.7,0.2,2.9,0.2c3.6,0,7-1.3,7-5.3
			c0-3.7-3.2-5.2-7-5.2h-2.9V31z"/>
		<path d="M319.1,5.1h3.5v28.6h-3.5V5.1z"/>
		<path d="M346.3,23.8c0,7.2-5,10.3-9.7,10.3c-5.3,0-9.3-3.9-9.3-10c0-6.5,4.3-10.3,9.7-10.3C342.5,13.8,346.3,17.8,346.3,23.8z
			 M330.8,24c0,4.3,2.5,7.5,5.9,7.5c3.4,0,5.9-3.2,5.9-7.6c0-3.3-1.7-7.5-5.8-7.5C332.6,16.4,330.8,20.3,330.8,24z"/>
		<path d="M367.5,14.2c-0.1,1.4-0.2,3-0.2,5.4v11.3c0,4.5-0.9,7.2-2.8,8.9c-1.9,1.8-4.6,2.3-7.1,2.3c-2.3,0-4.9-0.6-6.5-1.6l0.9-2.7
			c1.3,0.8,3.3,1.5,5.7,1.5c3.6,0,6.3-1.9,6.3-6.8v-2.2h-0.1c-1.1,1.8-3.2,3.3-6.2,3.3c-4.8,0-8.3-4.1-8.3-9.5
			c0-6.6,4.3-10.3,8.8-10.3c3.4,0,5.2,1.8,6.1,3.4h0.1l0.2-2.9H367.5z M363.9,21.9c0-0.6,0-1.1-0.2-1.6c-0.6-2.1-2.4-3.7-5-3.7
			c-3.4,0-5.8,2.9-5.8,7.4c0,3.8,1.9,7,5.8,7c2.2,0,4.1-1.4,4.9-3.6c0.2-0.6,0.3-1.3,0.3-1.9V21.9z"/>
	</g>
</g>
<g id="Layer_2">
</g>
<g id="Layer_3">
	<path class="st2" d="M87.4,76.7c0,7.7-6.2,13.9-13.8,13.9H16.1c-7.6,0-13.8-6.2-13.8-13.9V18.8c0-7.7,6.2-13.9,13.8-13.9h57.5
		c7.6,0,13.8,6.2,13.8,13.9V76.7z"/>
	<g>
		<polygon class="st3" points="79.8,6.7 80.4,11.2 83.6,9.3 81.7,7.4 		"/>
		<polygon class="st4" points="87.4,15.2 80.4,11.2 83.6,9.3 85.6,11.2 		"/>
		<polygon class="st5" points="80.4,11.2 87.4,15.2 80.4,19.2 		"/>
		<polygon class="st4" points="87.4,23.2 80.4,19.2 87.4,15.2 		"/>
		<polygon class="st3" points="80.4,19.2 87.4,23.2 80.4,27.2 		"/>
		<polygon class="st6" points="87.4,31.2 80.4,27.2 87.4,23.2 		"/>
		<polygon class="st3" points="80.4,27.2 87.4,31.2 80.4,35.2 		"/>
		<polygon class="st3" points="87.4,39.2 80.4,35.2 87.4,31.2 		"/>
		<polygon class="st3" points="80.4,35.2 87.4,39.2 80.4,43.2 		"/>
		<polygon class="st6" points="87.4,47.2 80.4,43.2 87.4,39.2 		"/>
		<polygon class="st3" points="80.4,43.2 87.4,47.2 80.4,51.2 		"/>
		<polygon class="st4" points="87.4,55.2 80.4,51.2 87.4,47.2 		"/>
		<polygon class="st3" points="80.4,51.2 87.4,55.2 80.4,59.2 		"/>
		<polygon class="st5" points="87.4,63.2 80.4,59.2 87.4,55.2 		"/>
		<polygon class="st3" points="80.4,59.2 87.4,63.2 80.4,67.3 		"/>
		<polygon class="st5" points="87.4,71.3 80.4,67.3 87.4,63.2 		"/>
		<polygon class="st3" points="80.4,67.3 87.4,71.3 80.4,75.3 		"/>
		<polygon class="st3" points="87.4,79.3 80.4,75.3 87.4,71.3 		"/>
		<polygon class="st4" points="80.4,75.3 87.4,79.3 80.4,83.3 		"/>
		<path class="st6" d="M84.4,85.6l-4-2.3l7.1-4c0,0-0.9,2.8-1.3,3.7C85.8,83.7,84.4,85.6,84.4,85.6z"/>
		<polygon class="st5" points="80.4,88.5 82.4,87.5 84.4,85.6 80.4,83.3 80.4,88.5 		"/>
		<path class="st3" d="M75.2,5.5l-5.1-0.1l10.3,5.8l-0.6-4.5c0,0-1.1-0.5-1.8-0.9C77.3,5.5,75.2,5.5,75.2,5.5z"/>
		<polygon class="st6" points="73.3,7.2 80.4,11.2 73.3,15.2 		"/>
		<polygon class="st6" points="80.4,19.2 73.3,15.2 80.4,11.2 		"/>
		<polygon class="st5" points="73.3,15.2 80.4,19.2 73.3,23.2 		"/>
		<polygon class="st3" points="80.4,27.2 73.3,23.2 80.4,19.2 		"/>
		<polygon class="st5" points="73.3,23.2 80.4,27.2 73.3,31.2 		"/>
		<polygon class="st5" points="80.4,35.2 73.3,31.2 80.4,27.2 		"/>
		<polygon class="st5" points="73.3,31.2 80.4,35.2 73.3,39.2 		"/>
		<polygon class="st4" points="80.4,43.2 73.3,39.2 80.4,35.2 		"/>
		<polygon class="st4" points="73.3,39.2 80.4,43.2 73.3,47.2 		"/>
		<polygon class="st3" points="80.4,51.2 73.3,47.2 80.4,43.2 		"/>
		<polygon class="st4" points="73.3,47.2 80.4,51.2 73.3,55.2 		"/>
		<polygon class="st3" points="80.4,59.2 73.3,55.2 80.4,51.2 		"/>
		<polygon class="st4" points="73.3,55.2 80.4,59.2 73.3,63.2 		"/>
		<polygon class="st3" points="80.4,67.3 73.3,63.2 80.4,59.2 		"/>
		<polygon class="st3" points="73.3,63.2 80.4,67.3 73.3,71.3 		"/>
		<polygon class="st3" points="80.4,75.3 73.3,71.3 80.4,67.3 		"/>
		<polygon class="st3" points="73.3,71.3 80.4,75.3 73.3,79.3 		"/>
		<polygon class="st3" points="80.4,83.3 73.3,79.3 80.4,75.3 		"/>
		<polygon class="st5" points="73.3,79.3 80.4,83.3 73.3,87.3 		"/>
		<polygon class="st3" points="80.4,88.5 80.4,83.3 73.3,87.3 80.4,88.5 		"/>
		<polygon class="st4" points="80.4,88.5 73.3,87.3 73.3,90.1 76.8,89.8 		"/>
		<polygon class="st4" points="66.2,4.9 66.2,11.2 73.3,7.2 69.3,4.9 		"/>
		<polygon class="st4" points="73.3,15.2 66.2,11.2 73.3,7.2 		"/>
		<polygon class="st3" points="66.2,11.2 73.3,15.2 66.2,19.2 		"/>
		<polygon class="st4" points="73.3,23.2 66.2,19.2 73.3,15.2 		"/>
		<polygon class="st5" points="66.2,19.2 73.3,23.2 66.2,27.2 		"/>
		<polygon class="st5" points="73.3,31.2 66.2,27.2 73.3,23.2 		"/>
		<polygon class="st5" points="66.2,27.2 73.3,31.2 66.2,35.2 		"/>
		<polygon class="st4" points="73.3,39.2 66.2,35.2 73.3,31.2 		"/>
		<polygon class="st3" points="66.2,35.2 73.3,39.2 66.2,43.2 		"/>
		<polygon class="st6" points="73.3,47.2 66.2,43.2 73.3,39.2 		"/>
		<polygon class="st3" points="66.2,43.2 73.3,47.2 66.2,51.2 		"/>
		<polygon class="st3" points="73.3,55.2 66.2,51.2 73.3,47.2 		"/>
		<polygon class="st3" points="66.2,51.2 73.3,55.2 66.2,59.2 		"/>
		<polygon class="st3" points="73.3,63.2 66.2,59.2 73.3,55.2 		"/>
		<polygon class="st3" points="66.2,59.2 73.3,63.2 66.2,67.3 		"/>
		<polygon class="st3" points="73.3,71.3 66.2,67.3 73.3,63.2 		"/>
		<polygon class="st3" points="66.2,67.3 73.3,71.3 66.2,75.3 		"/>
		<polygon class="st6" points="73.3,79.3 66.2,75.3 73.3,71.3 		"/>
		<polygon class="st3" points="66.2,75.3 73.3,79.3 66.2,83.3 		"/>
		<polygon class="st3" points="73.3,87.3 66.2,83.3 73.3,79.3 		"/>
		<polygon class="st3" points="66.3,91.3 73.3,87.3 66.2,83.3 66.2,91.3 		"/>
		<polygon class="st4" points="73.3,91.3 73.3,87.3 66.3,91.3 		"/>
		<polygon class="st3" points="59.2,4.9 59.2,7.2 63.1,4.9 		"/>
		<polygon class="st5" points="63.1,4.9 59.2,7.2 66.2,11.2 66.2,4.9 		"/>
		<polygon class="st5" points="59.2,7.2 66.2,11.2 59.2,15.2 		"/>
		<polygon class="st3" points="66.2,19.2 59.2,15.2 66.2,11.2 		"/>
		<polygon class="st3" points="59.2,15.2 66.2,19.2 59.2,23.2 		"/>
		<polygon class="st3" points="66.2,27.2 59.2,23.2 66.2,19.2 		"/>
		<polygon class="st3" points="59.2,23.2 66.2,27.2 59.2,31.2 		"/>
		<polygon class="st3" points="66.2,35.2 59.2,31.2 66.2,27.2 		"/>
		<polygon class="st3" points="59.2,31.2 66.2,35.2 59.2,39.2 		"/>
		<polygon class="st3" points="66.2,43.2 59.2,39.2 66.2,35.2 		"/>
		<polygon class="st5" points="59.2,39.2 66.2,43.2 59.2,47.2 		"/>
		<polygon class="st4" points="66.2,51.2 59.2,47.2 66.2,43.2 		"/>
		<polygon class="st5" points="59.2,47.2 66.2,51.2 59.2,55.2 		"/>
		<polygon class="st3" points="66.2,59.2 59.2,55.2 66.2,51.2 		"/>
		<polygon class="st5" points="59.2,55.2 66.2,59.2 59.2,63.2 		"/>
		<polygon class="st5" points="66.2,67.3 59.2,63.2 66.2,59.2 		"/>
		<polygon class="st6" points="59.2,63.2 66.2,67.3 59.2,71.3 		"/>
		<polygon class="st5" points="66.2,75.3 59.2,71.3 66.2,67.3 		"/>
		<polygon class="st3" points="59.2,71.3 66.2,75.3 59.2,79.3 		"/>
		<polygon class="st4" points="66.2,83.3 59.2,79.3 66.2,75.3 		"/>
		<polygon class="st4" points="59.2,79.3 66.2,83.3 59.2,87.3 		"/>
		<polygon class="st3" points="66.2,91.3 66.2,83.3 59.2,87.3 66.2,91.3 		"/>
		<polygon class="st6" points="66.2,91.3 59.2,87.3 59.2,91.3 		"/>
		<polygon class="st3" points="55.2,4.9 59.2,7.2 59.2,4.9 		"/>
		<polygon class="st6" points="52.1,4.9 52.1,11.2 59.2,7.2 55.2,4.9 		"/>
		<polygon class="st3" points="59.2,15.2 52.1,11.2 59.2,7.2 		"/>
		<polygon class="st6" points="52.1,11.2 59.2,15.2 52.1,19.2 		"/>
		<polygon class="st6" points="59.2,23.2 52.1,19.2 59.2,15.2 		"/>
		<polygon class="st6" points="52.1,19.2 59.2,23.2 52.1,27.2 		"/>
		<polygon class="st5" points="59.2,31.2 52.1,27.2 59.2,23.2 		"/>
		<polygon class="st5" points="52.1,27.2 59.2,31.2 52.1,35.2 		"/>
		<polygon class="st3" points="59.2,39.2 52.1,35.2 59.2,31.2 		"/>
		<polygon class="st6" points="52.1,35.2 59.2,39.2 52.1,43.2 		"/>
		<polygon class="st4" points="59.2,47.2 52.1,43.2 59.2,39.2 		"/>
		<polygon class="st3" points="52.1,43.2 59.2,47.2 52.1,51.2 		"/>
		<polygon class="st3" points="59.2,55.2 52.1,51.2 59.2,47.2 		"/>
		<polygon class="st3" points="52.1,51.2 59.2,55.2 52.1,59.2 		"/>
		<polygon class="st5" points="59.2,63.2 52.1,59.2 59.2,55.2 		"/>
		<polygon class="st5" points="52.1,59.2 59.2,63.2 52.1,67.3 		"/>
		<polygon class="st5" points="59.2,71.3 52.1,67.3 59.2,63.2 		"/>
		<polygon class="st6" points="52.1,67.3 59.2,71.3 52.1,75.3 		"/>
		<polygon class="st3" points="59.2,79.3 52.1,75.3 59.2,71.3 		"/>
		<polygon class="st4" points="52.1,75.3 59.2,79.3 52.1,83.3 		"/>
		<polygon class="st3" points="59.2,87.3 52.1,83.3 59.2,79.3 		"/>
		<polygon class="st3" points="52.1,91.3 59.2,87.3 52.1,83.3 52.1,91.3 		"/>
		<polygon class="st3" points="59.2,91.3 59.2,87.3 52.1,91.3 		"/>
		<polygon class="st4" points="45,4.9 45,7.2 49,4.9 		"/>
		<polygon class="st4" points="49,4.9 45,7.2 52.1,11.2 52.1,4.9 		"/>
		<polygon class="st3" points="45,7.2 52.1,11.2 45,15.2 		"/>
		<polygon class="st4" points="52.1,19.2 45,15.2 52.1,11.2 		"/>
		<polygon class="st4" points="45,15.2 52.1,19.2 45,23.2 		"/>
		<polygon class="st5" points="52.1,27.2 45,23.2 52.1,19.2 		"/>
		<polygon class="st5" points="45,23.2 52.1,27.2 45,31.2 		"/>
		<polygon class="st4" points="52.1,35.2 45,31.2 52.1,27.2 		"/>
		<polygon class="st3" points="45,31.2 52.1,35.2 45,39.2 		"/>
		<polygon class="st6" points="52.1,43.2 45,39.2 52.1,35.2 		"/>
		<polygon class="st5" points="45,39.2 52.1,43.2 45,47.2 		"/>
		<polygon class="st4" points="52.1,51.2 45,47.2 52.1,43.2 		"/>
		<polygon class="st3" points="45,47.2 52.1,51.2 45,55.2 		"/>
		<polygon class="st5" points="52.1,59.2 45,55.2 52.1,51.2 		"/>
		<polygon class="st5" points="45,55.2 52.1,59.2 45,63.2 		"/>
		<polygon class="st3" points="52.1,67.3 45,63.2 52.1,59.2 		"/>
		<polygon class="st6" points="45,63.2 52.1,67.3 45,71.3 		"/>
		<polygon class="st5" points="52.1,75.3 45,71.3 52.1,67.3 		"/>
		<polygon class="st6" points="45,71.3 52.1,75.3 45,79.3 		"/>
		<polygon class="st4" points="52.1,83.3 45,79.3 52.1,75.3 		"/>
		<polygon class="st3" points="45,79.3 52.1,83.3 45,87.3 		"/>
		<polygon class="st4" points="52.1,91.3 52.1,83.3 45,87.3 52.1,91.3 		"/>
		<polygon class="st5" points="52.1,91.3 45,87.3 45,91.3 		"/>
		<polygon class="st3" points="41.1,4.9 45,7.2 45,4.9 		"/>
		<polygon class="st3" points="38,4.9 38,11.2 45,7.2 41.1,4.9 		"/>
		<polygon class="st4" points="45,15.2 38,11.2 45,7.2 		"/>
		<polygon class="st5" points="38,11.2 45,15.2 38,19.2 		"/>
		<polygon class="st3" points="45,23.2 38,19.2 45,15.2 		"/>
		<polygon class="st3" points="38,19.2 45,23.2 38,27.2 		"/>
		<polygon class="st3" points="45,31.2 38,27.2 45,23.2 		"/>
		<polygon class="st3" points="38,27.2 45,31.2 38,35.2 		"/>
		<polygon class="st3" points="45,39.2 38,35.2 45,31.2 		"/>
		<polygon class="st3" points="38,35.2 45,39.2 38,43.2 		"/>
		<polygon class="st5" points="45,47.2 38,43.2 45,39.2 		"/>
		<polygon class="st4" points="38,43.2 45,47.2 38,51.2 		"/>
		<polygon class="st3" points="45,55.2 38,51.2 45,47.2 		"/>
		<polygon class="st4" points="38,51.2 45,55.2 38,59.2 		"/>
		<polygon class="st4" points="45,63.2 38,59.2 45,55.2 		"/>
		<polygon class="st3" points="38,59.2 45,63.2 38,67.3 		"/>
		<polygon class="st3" points="45,71.3 38,67.3 45,63.2 		"/>
		<polygon class="st4" points="38,67.3 45,71.3 38,75.3 		"/>
		<polygon class="st3" points="45,79.3 38,75.3 45,71.3 		"/>
		<polygon class="st3" points="38,75.3 45,79.3 38,83.3 		"/>
		<polygon class="st6" points="45,87.3 38,83.3 45,79.3 		"/>
		<polygon class="st3" points="38,91.3 45,87.3 38,83.3 38,91.3 		"/>
		<polygon class="st5" points="45,91.3 45,87.3 38,91.3 		"/>
		<polygon class="st3" points="30.9,4.9 30.9,7.2 34.9,4.9 		"/>
		<polygon class="st5" points="34.9,4.9 30.9,7.2 38,11.2 38,4.9 		"/>
		<polygon class="st5" points="30.9,7.2 38,11.2 30.9,15.2 		"/>
		<polygon class="st6" points="38,19.2 30.9,15.2 38,11.2 		"/>
		<polygon class="st6" points="30.9,15.2 38,19.2 30.9,23.2 		"/>
		<polygon class="st3" points="38,27.2 30.9,23.2 38,19.2 		"/>
		<polygon class="st5" points="30.9,23.2 38,27.2 30.9,31.2 		"/>
		<polygon class="st6" points="38,35.2 30.9,31.2 38,27.2 		"/>
		<polygon class="st3" points="30.9,31.2 38,35.2 30.9,39.2 		"/>
		<polygon class="st3" points="38,43.2 30.9,39.2 38,35.2 		"/>
		<polygon class="st5" points="30.9,39.2 38,43.2 30.9,47.2 		"/>
		<polygon class="st5" points="38,51.2 30.9,47.2 38,43.2 		"/>
		<polygon class="st3" points="30.9,47.2 38,51.2 30.9,55.2 		"/>
		<polygon class="st4" points="38,59.2 30.9,55.2 38,51.2 		"/>
		<polygon class="st5" points="30.9,55.2 38,59.2 30.9,63.2 		"/>
		<polygon class="st3" points="38,67.3 30.9,63.2 38,59.2 		"/>
		<polygon class="st5" points="30.9,63.2 38,67.3 30.9,71.3 		"/>
		<polygon class="st3" points="38,75.3 30.9,71.3 38,67.3 		"/>
		<polygon class="st3" points="30.9,71.3 38,75.3 30.9,79.3 		"/>
		<polygon class="st3" points="38,83.3 30.9,79.3 38,75.3 		"/>
		<polygon class="st4" points="30.9,79.3 38,83.3 30.9,87.3 		"/>
		<polygon class="st3" points="38,91.3 38,83.3 30.9,87.3 37.9,91.3 		"/>
		<polygon class="st3" points="37.9,91.3 30.9,87.3 30.9,91.3 		"/>
		<polygon class="st3" points="26.9,4.9 30.9,7.2 30.9,4.9 		"/>
		<polygon class="st5" points="23.8,4.9 23.8,11.2 30.9,7.2 26.9,4.9 		"/>
		<polygon class="st3" points="30.9,15.2 23.8,11.2 30.9,7.2 		"/>
		<polygon class="st5" points="23.8,11.2 30.9,15.2 23.8,19.2 		"/>
		<polygon class="st3" points="30.9,23.2 23.8,19.2 30.9,15.2 		"/>
		<polygon class="st3" points="23.8,19.2 30.9,23.2 23.8,27.2 		"/>
		<polygon class="st3" points="30.9,31.2 23.8,27.2 30.9,23.2 		"/>
		<polygon class="st6" points="23.8,27.2 30.9,31.2 23.8,35.2 		"/>
		<polygon class="st6" points="30.9,39.2 23.8,35.2 30.9,31.2 		"/>
		<polygon class="st3" points="23.8,35.2 30.9,39.2 23.8,43.2 		"/>
		<polygon class="st6" points="30.9,47.2 23.8,43.2 30.9,39.2 		"/>
		<polygon class="st6" points="23.8,43.2 30.9,47.2 23.8,51.2 		"/>
		<polygon class="st4" points="30.9,55.2 23.8,51.2 30.9,47.2 		"/>
		<polygon class="st5" points="23.8,51.2 30.9,55.2 23.8,59.2 		"/>
		<polygon class="st6" points="30.9,63.2 23.8,59.2 30.9,55.2 		"/>
		<polygon class="st4" points="23.8,59.2 30.9,63.2 23.8,67.3 		"/>
		<polygon class="st4" points="30.9,71.3 23.8,67.3 30.9,63.2 		"/>
		<polygon class="st3" points="23.8,67.3 30.9,71.3 23.8,75.3 		"/>
		<polygon class="st3" points="30.9,79.3 23.8,75.3 30.9,71.3 		"/>
		<polygon class="st3" points="23.8,75.3 30.9,79.3 23.8,83.3 		"/>
		<polygon class="st4" points="30.9,87.3 23.8,83.3 30.9,79.3 		"/>
		<polygon class="st4" points="23.9,91.3 30.9,87.3 23.8,83.3 23.8,91.3 		"/>
		<polygon class="st4" points="30.9,91.3 30.9,87.3 23.9,91.3 		"/>
		<polygon class="st5" points="16.8,4.9 16.8,7.2 20.8,4.9 		"/>
		<polygon class="st5" points="20.8,4.9 16.8,7.2 23.8,11.2 23.8,4.9 		"/>
		<polygon class="st3" points="16.8,7.2 23.8,11.2 16.8,15.2 		"/>
		<polygon class="st5" points="23.8,19.2 16.8,15.2 23.8,11.2 		"/>
		<polygon class="st5" points="16.8,15.2 23.8,19.2 16.8,23.2 		"/>
		<polygon class="st3" points="23.8,27.2 16.8,23.2 23.8,19.2 		"/>
		<polygon class="st6" points="16.8,23.2 23.8,27.2 16.8,31.2 		"/>
		<polygon class="st4" points="23.8,35.2 16.8,31.2 23.8,27.2 		"/>
		<polygon class="st5" points="16.8,31.2 23.8,35.2 16.8,39.2 		"/>
		<polygon class="st6" points="23.8,43.2 16.8,39.2 23.8,35.2 		"/>
		<polygon class="st3" points="16.8,39.2 23.8,43.2 16.8,47.2 		"/>
		<polygon class="st6" points="23.8,51.2 16.8,47.2 23.8,43.2 		"/>
		<polygon class="st3" points="16.8,47.2 23.8,51.2 16.8,55.2 		"/>
		<polygon class="st3" points="23.8,59.2 16.8,55.2 23.8,51.2 		"/>
		<polygon class="st3" points="16.8,55.2 23.8,59.2 16.8,63.2 		"/>
		<polygon class="st3" points="23.8,67.3 16.8,63.2 23.8,59.2 		"/>
		<polygon class="st4" points="16.8,63.2 23.8,67.3 16.8,71.3 		"/>
		<polygon class="st3" points="23.8,75.3 16.8,71.3 23.8,67.3 		"/>
		<polygon class="st3" points="16.8,71.3 23.8,75.3 16.8,79.3 		"/>
		<polygon class="st3" points="23.8,83.3 16.8,79.3 23.8,75.3 		"/>
		<polygon class="st3" points="16.8,79.3 23.8,83.3 16.8,87.3 		"/>
		<polygon class="st5" points="23.8,91.3 23.8,83.3 16.8,87.3 23.8,91.3 		"/>
		<polygon class="st3" points="23.8,90.1 16.8,87.3 16.8,90.1 		"/>
		<polygon class="st5" points="13.7,5.4 16.8,7.2 16.8,4.9 		"/>
		<polygon class="st5" points="10.2,6.9 9.7,11.2 16.8,7.2 13.9,5.3 		"/>
		<polygon class="st3" points="16.8,15.2 9.7,11.2 16.8,7.2 		"/>
		<polygon class="st5" points="9.7,11.2 16.8,15.2 9.7,19.2 		"/>
		<polygon class="st3" points="16.8,23.2 9.7,19.2 16.8,15.2 		"/>
		<polygon class="st3" points="9.7,19.2 16.8,23.2 9.7,27.2 		"/>
		<polygon class="st3" points="16.8,31.2 9.7,27.2 16.8,23.2 		"/>
		<polygon class="st3" points="9.7,27.2 16.8,31.2 9.7,35.2 		"/>
		<polygon class="st6" points="16.8,39.2 9.7,35.2 16.8,31.2 		"/>
		<polygon class="st4" points="9.7,35.2 16.8,39.2 9.7,43.2 		"/>
		<polygon class="st5" points="16.8,47.2 9.7,43.2 16.8,39.2 		"/>
		<polygon class="st3" points="9.7,43.2 16.8,47.2 9.7,51.2 		"/>
		<polygon class="st3" points="16.8,55.2 9.7,51.2 16.8,47.2 		"/>
		<polygon class="st5" points="9.7,51.2 16.8,55.2 9.7,59.2 		"/>
		<polygon class="st5" points="16.8,63.2 9.7,59.2 16.8,55.2 		"/>
		<polygon class="st4" points="9.7,59.2 16.8,63.2 9.7,67.3 		"/>
		<polygon class="st5" points="16.8,71.3 9.7,67.3 16.8,63.2 		"/>
		<polygon class="st5" points="9.7,67.3 16.8,71.3 9.7,75.3 		"/>
		<polygon class="st3" points="16.8,79.3 9.7,75.3 16.8,71.3 		"/>
		<polygon class="st3" points="9.7,75.3 16.8,79.3 9.7,83.3 		"/>
		<polygon class="st6" points="16.8,87.3 9.7,83.3 16.8,79.3 		"/>
		<polygon class="st6" points="10.2,88.6 16.8,87.3 9.7,83.3 9.5,88.2 		"/>
		<path class="st5" d="M16.8,90v-2.8l-4.3,2.3c0,0,1.6,0.4,2.1,0.5C15.1,90.1,16.8,90,16.8,90z"/>
		<path class="st4" d="M9.7,19.2l-6.5-3.8c0,0,0.8-2.7,1.3-3.4C5,11.2,6.1,10,6.8,9.3c0.7-0.8,3.4-2.6,3.4-2.6L9.7,19.2z"/>
		<polygon class="st3" points="2.9,15.2 9.7,19.2 2.7,23.2 		"/>
		<polygon class="st3" points="9.7,27.2 2.7,23.2 9.7,19.2 		"/>
		<polygon class="st5" points="2.7,23.2 9.7,27.2 2.7,31.2 		"/>
		<polygon class="st5" points="9.7,35.2 2.7,31.2 9.7,27.2 		"/>
		<polygon class="st3" points="2.7,31.2 9.7,35.2 2.7,39.2 		"/>
		<polygon class="st3" points="9.7,43.2 2.7,39.2 9.7,35.2 		"/>
		<polygon class="st5" points="2.7,39.2 9.7,43.2 2.7,47.2 		"/>
		<polygon class="st3" points="9.7,51.2 2.7,47.2 9.7,43.2 		"/>
		<polygon class="st6" points="2.7,47.2 9.7,51.2 2.7,55.2 		"/>
		<polygon class="st4" points="9.7,59.2 2.7,55.2 9.7,51.2 		"/>
		<polygon class="st3" points="2.7,55.2 9.7,59.2 2.7,63.2 		"/>
		<polygon class="st6" points="9.7,67.3 2.7,63.2 9.7,59.2 		"/>
		<polygon class="st3" points="2.7,63.2 9.7,67.3 2.7,71.3 		"/>
		<polygon class="st5" points="9.7,75.3 2.7,71.3 9.7,67.3 		"/>
		<polygon class="st5" points="2.7,71.3 9.7,75.3 2.7,79.3 		"/>
		<polygon class="st5" points="9.7,83.3 2.7,79.3 9.7,75.3 		"/>
		<polygon class="st5" points="2.7,79.3 9.7,83.3 4.8,84.2 		"/>
		<path class="st4" d="M9.5,88.2l0.2-5l-4.6,1c0,0,0.8,1,1.3,1.6C7.3,86.9,9.5,88.2,9.5,88.2z"/>
	</g>
	<g>
		<polygon class="st3" points="79.3,6.7 79.9,11.2 83.1,9.3 81.2,7.4 		"/>
		<polygon class="st4" points="86.9,15.2 79.9,11.2 83.1,9.3 85.1,11.2 		"/>
		<polygon class="st5" points="79.9,11.2 86.9,15.2 79.9,19.2 		"/>
		<polygon class="st4" points="86.9,23.2 79.9,19.2 86.9,15.2 		"/>
		<polygon class="st3" points="79.9,19.2 86.9,23.2 79.9,27.2 		"/>
		<polygon class="st6" points="86.9,31.2 79.9,27.2 86.9,23.2 		"/>
		<polygon class="st3" points="79.9,27.2 86.9,31.2 79.9,35.2 		"/>
		<polygon class="st3" points="86.9,39.2 79.9,35.2 86.9,31.2 		"/>
		<polygon class="st3" points="79.9,35.2 86.9,39.2 79.9,43.2 		"/>
		<polygon class="st6" points="86.9,47.2 79.9,43.2 86.9,39.2 		"/>
		<polygon class="st3" points="79.9,43.2 86.9,47.2 79.9,51.2 		"/>
		<polygon class="st4" points="86.9,55.2 79.9,51.2 86.9,47.2 		"/>
		<polygon class="st3" points="79.9,51.2 86.9,55.2 79.9,59.2 		"/>
		<polygon class="st5" points="86.9,63.2 79.9,59.2 86.9,55.2 		"/>
		<polygon class="st3" points="79.9,59.2 86.9,63.2 79.9,67.3 		"/>
		<polygon class="st5" points="86.9,71.3 79.9,67.3 86.9,63.2 		"/>
		<polygon class="st3" points="79.9,67.3 86.9,71.3 79.9,75.3 		"/>
		<polygon class="st3" points="86.9,79.3 79.9,75.3 86.9,71.3 		"/>
		<polygon class="st4" points="79.9,75.3 86.9,79.3 79.9,83.3 		"/>
		<path class="st6" d="M83.9,85.6l-4-2.3l7-4c0,0-0.8,2.8-1.3,3.7C85.3,83.7,83.9,85.6,83.9,85.6z"/>
		<polygon class="st5" points="79.9,88.5 81.9,87.5 83.9,85.6 79.9,83.3 79.9,88.5 		"/>
		<path class="st3" d="M74.8,5.5l-5.1-0.1l10.2,5.8l-0.6-4.5c0,0-1.1-0.5-1.8-0.9C76.9,5.5,74.8,5.5,74.8,5.5z"/>
		<polygon class="st6" points="72.9,7.2 79.9,11.2 72.9,15.2 		"/>
		<polygon class="st6" points="79.9,19.2 72.9,15.2 79.9,11.2 		"/>
		<polygon class="st5" points="72.9,15.2 79.9,19.2 72.9,23.2 		"/>
		<polygon class="st3" points="79.9,27.2 72.9,23.2 79.9,19.2 		"/>
		<polygon class="st5" points="72.9,23.2 79.9,27.2 72.9,31.2 		"/>
		<polygon class="st5" points="79.9,35.2 72.9,31.2 79.9,27.2 		"/>
		<polygon class="st5" points="72.9,31.2 79.9,35.2 72.9,39.2 		"/>
		<polygon class="st4" points="79.9,43.2 72.9,39.2 79.9,35.2 		"/>
		<polygon class="st4" points="72.9,39.2 79.9,43.2 72.9,47.2 		"/>
		<polygon class="st3" points="79.9,51.2 72.9,47.2 79.9,43.2 		"/>
		<polygon class="st4" points="72.9,47.2 79.9,51.2 72.9,55.2 		"/>
		<polygon class="st3" points="79.9,59.2 72.9,55.2 79.9,51.2 		"/>
		<polygon class="st4" points="72.9,55.2 79.9,59.2 72.9,63.2 		"/>
		<polygon class="st3" points="79.9,67.3 72.9,63.2 79.9,59.2 		"/>
		<polygon class="st3" points="72.9,63.2 79.9,67.3 72.9,71.3 		"/>
		<polygon class="st3" points="79.9,75.3 72.9,71.3 79.9,67.3 		"/>
		<polygon class="st3" points="72.9,71.3 79.9,75.3 72.9,79.3 		"/>
		<polygon class="st3" points="79.9,83.3 72.9,79.3 79.9,75.3 		"/>
		<polygon class="st5" points="72.9,79.3 79.9,83.3 72.9,87.3 		"/>
		<polygon class="st3" points="79.9,88.5 79.9,83.3 72.9,87.3 79.9,88.5 		"/>
		<polygon class="st4" points="79.9,88.5 72.9,87.3 72.9,90.1 76.4,89.8 		"/>
		<polygon class="st4" points="65.9,4.9 65.9,11.2 72.9,7.2 68.9,4.9 		"/>
		<polygon class="st4" points="72.9,15.2 65.9,11.2 72.9,7.2 		"/>
		<polygon class="st3" points="65.9,11.2 72.9,15.2 65.9,19.2 		"/>
		<polygon class="st4" points="72.9,23.2 65.9,19.2 72.9,15.2 		"/>
		<polygon class="st5" points="65.9,19.2 72.9,23.2 65.9,27.2 		"/>
		<polygon class="st5" points="72.9,31.2 65.9,27.2 72.9,23.2 		"/>
		<polygon class="st5" points="65.9,27.2 72.9,31.2 65.9,35.2 		"/>
		<polygon class="st4" points="72.9,39.2 65.9,35.2 72.9,31.2 		"/>
		<polygon class="st3" points="65.9,35.2 72.9,39.2 65.9,43.2 		"/>
		<polygon class="st6" points="72.9,47.2 65.9,43.2 72.9,39.2 		"/>
		<polygon class="st3" points="65.9,43.2 72.9,47.2 65.9,51.2 		"/>
		<polygon class="st3" points="72.9,55.2 65.9,51.2 72.9,47.2 		"/>
		<polygon class="st3" points="65.9,51.2 72.9,55.2 65.9,59.2 		"/>
		<polygon class="st3" points="72.9,63.2 65.9,59.2 72.9,55.2 		"/>
		<polygon class="st3" points="65.9,59.2 72.9,63.2 65.9,67.3 		"/>
		<polygon class="st3" points="72.9,71.3 65.9,67.3 72.9,63.2 		"/>
		<polygon class="st3" points="65.9,67.3 72.9,71.3 65.9,75.3 		"/>
		<polygon class="st6" points="72.9,79.3 65.9,75.3 72.9,71.3 		"/>
		<polygon class="st3" points="65.9,75.3 72.9,79.3 65.9,83.3 		"/>
		<polygon class="st3" points="72.9,87.3 65.9,83.3 72.9,79.3 		"/>
		<polygon class="st3" points="65.9,91.3 72.9,87.3 65.9,83.3 65.9,91.3 		"/>
		<polygon class="st4" points="72.9,91.3 72.9,87.3 65.9,91.3 		"/>
		<polygon class="st3" points="58.8,4.9 58.8,7.2 62.8,4.9 		"/>
		<polygon class="st5" points="62.8,4.9 58.8,7.2 65.9,11.2 65.9,4.9 		"/>
		<polygon class="st5" points="58.8,7.2 65.9,11.2 58.8,15.2 		"/>
		<polygon class="st3" points="65.9,19.2 58.8,15.2 65.9,11.2 		"/>
		<polygon class="st3" points="58.8,15.2 65.9,19.2 58.8,23.2 		"/>
		<polygon class="st3" points="65.9,27.2 58.8,23.2 65.9,19.2 		"/>
		<polygon class="st3" points="58.8,23.2 65.9,27.2 58.8,31.2 		"/>
		<polygon class="st3" points="65.9,35.2 58.8,31.2 65.9,27.2 		"/>
		<polygon class="st3" points="58.8,31.2 65.9,35.2 58.8,39.2 		"/>
		<polygon class="st3" points="65.9,43.2 58.8,39.2 65.9,35.2 		"/>
		<polygon class="st5" points="58.8,39.2 65.9,43.2 58.8,47.2 		"/>
		<polygon class="st4" points="65.9,51.2 58.8,47.2 65.9,43.2 		"/>
		<polygon class="st5" points="58.8,47.2 65.9,51.2 58.8,55.2 		"/>
		<polygon class="st3" points="65.9,59.2 58.8,55.2 65.9,51.2 		"/>
		<polygon class="st5" points="58.8,55.2 65.9,59.2 58.8,63.2 		"/>
		<polygon class="st5" points="65.9,67.3 58.8,63.2 65.9,59.2 		"/>
		<polygon class="st6" points="58.8,63.2 65.9,67.3 58.8,71.3 		"/>
		<polygon class="st5" points="65.9,75.3 58.8,71.3 65.9,67.3 		"/>
		<polygon class="st3" points="58.8,71.3 65.9,75.3 58.8,79.3 		"/>
		<polygon class="st4" points="65.9,83.3 58.8,79.3 65.9,75.3 		"/>
		<polygon class="st4" points="58.8,79.3 65.9,83.3 58.8,87.3 		"/>
		<polygon class="st3" points="65.9,91.3 65.9,83.3 58.8,87.3 65.8,91.3 		"/>
		<polygon class="st6" points="65.8,91.3 58.8,87.3 58.8,91.3 		"/>
		<polygon class="st3" points="54.9,4.9 58.8,7.2 58.8,4.9 		"/>
		<polygon class="st6" points="51.8,4.9 51.8,11.2 58.8,7.2 54.9,4.9 		"/>
		<polygon class="st3" points="58.8,15.2 51.8,11.2 58.8,7.2 		"/>
		<polygon class="st6" points="51.8,11.2 58.8,15.2 51.8,19.2 		"/>
		<polygon class="st6" points="58.8,23.2 51.8,19.2 58.8,15.2 		"/>
		<polygon class="st6" points="51.8,19.2 58.8,23.2 51.8,27.2 		"/>
		<polygon class="st5" points="58.8,31.2 51.8,27.2 58.8,23.2 		"/>
		<polygon class="st5" points="51.8,27.2 58.8,31.2 51.8,35.2 		"/>
		<polygon class="st3" points="58.8,39.2 51.8,35.2 58.8,31.2 		"/>
		<polygon class="st6" points="51.8,35.2 58.8,39.2 51.8,43.2 		"/>
		<polygon class="st4" points="58.8,47.2 51.8,43.2 58.8,39.2 		"/>
		<polygon class="st3" points="51.8,43.2 58.8,47.2 51.8,51.2 		"/>
		<polygon class="st3" points="58.8,55.2 51.8,51.2 58.8,47.2 		"/>
		<polygon class="st3" points="51.8,51.2 58.8,55.2 51.8,59.2 		"/>
		<polygon class="st5" points="58.8,63.2 51.8,59.2 58.8,55.2 		"/>
		<polygon class="st5" points="51.8,59.2 58.8,63.2 51.8,67.3 		"/>
		<polygon class="st5" points="58.8,71.3 51.8,67.3 58.8,63.2 		"/>
		<polygon class="st6" points="51.8,67.3 58.8,71.3 51.8,75.3 		"/>
		<polygon class="st3" points="58.8,79.3 51.8,75.3 58.8,71.3 		"/>
		<polygon class="st4" points="51.8,75.3 58.8,79.3 51.8,83.3 		"/>
		<polygon class="st3" points="58.8,87.3 51.8,83.3 58.8,79.3 		"/>
		<polygon class="st3" points="51.9,91.3 58.8,87.3 51.8,83.3 51.8,91.3 		"/>
		<polygon class="st3" points="58.8,91.3 58.8,87.3 51.9,91.3 		"/>
		<polygon class="st4" points="44.8,4.9 44.8,7.2 48.7,4.9 		"/>
		<polygon class="st4" points="48.7,4.9 44.8,7.2 51.8,11.2 51.8,4.9 		"/>
		<polygon class="st3" points="44.8,7.2 51.8,11.2 44.8,15.2 		"/>
		<polygon class="st4" points="51.8,19.2 44.8,15.2 51.8,11.2 		"/>
		<polygon class="st4" points="44.8,15.2 51.8,19.2 44.8,23.2 		"/>
		<polygon class="st5" points="51.8,27.2 44.8,23.2 51.8,19.2 		"/>
		<polygon class="st5" points="44.8,23.2 51.8,27.2 44.8,31.2 		"/>
		<polygon class="st4" points="51.8,35.2 44.8,31.2 51.8,27.2 		"/>
		<polygon class="st3" points="44.8,31.2 51.8,35.2 44.8,39.2 		"/>
		<polygon class="st6" points="51.8,43.2 44.8,39.2 51.8,35.2 		"/>
		<polygon class="st5" points="44.8,39.2 51.8,43.2 44.8,47.2 		"/>
		<polygon class="st4" points="51.8,51.2 44.8,47.2 51.8,43.2 		"/>
		<polygon class="st3" points="44.8,47.2 51.8,51.2 44.8,55.2 		"/>
		<polygon class="st5" points="51.8,59.2 44.8,55.2 51.8,51.2 		"/>
		<polygon class="st5" points="44.8,55.2 51.8,59.2 44.8,63.2 		"/>
		<polygon class="st3" points="51.8,67.3 44.8,63.2 51.8,59.2 		"/>
		<polygon class="st6" points="44.8,63.2 51.8,67.3 44.8,71.3 		"/>
		<polygon class="st5" points="51.8,75.3 44.8,71.3 51.8,67.3 		"/>
		<polygon class="st6" points="44.8,71.3 51.8,75.3 44.8,79.3 		"/>
		<polygon class="st4" points="51.8,83.3 44.8,79.3 51.8,75.3 		"/>
		<polygon class="st3" points="44.8,79.3 51.8,83.3 44.8,87.3 		"/>
		<polygon class="st4" points="51.8,91.3 51.8,83.3 44.8,87.3 51.8,91.3 		"/>
		<polygon class="st5" points="51.8,91.3 44.8,87.3 44.8,91.3 		"/>
		<polygon class="st3" points="40.8,4.9 44.8,7.2 44.8,4.9 		"/>
		<polygon class="st3" points="37.8,4.9 37.8,11.2 44.8,7.2 40.8,4.9 		"/>
		<polygon class="st4" points="44.8,15.2 37.8,11.2 44.8,7.2 		"/>
		<polygon class="st5" points="37.8,11.2 44.8,15.2 37.8,19.2 		"/>
		<polygon class="st3" points="44.8,23.2 37.8,19.2 44.8,15.2 		"/>
		<polygon class="st3" points="37.8,19.2 44.8,23.2 37.8,27.2 		"/>
		<polygon class="st3" points="44.8,31.2 37.8,27.2 44.8,23.2 		"/>
		<polygon class="st3" points="37.8,27.2 44.8,31.2 37.8,35.2 		"/>
		<polygon class="st3" points="44.8,39.2 37.8,35.2 44.8,31.2 		"/>
		<polygon class="st3" points="37.8,35.2 44.8,39.2 37.8,43.2 		"/>
		<polygon class="st5" points="44.8,47.2 37.8,43.2 44.8,39.2 		"/>
		<polygon class="st4" points="37.8,43.2 44.8,47.2 37.8,51.2 		"/>
		<polygon class="st3" points="44.8,55.2 37.8,51.2 44.8,47.2 		"/>
		<polygon class="st4" points="37.8,51.2 44.8,55.2 37.8,59.2 		"/>
		<polygon class="st4" points="44.8,63.2 37.8,59.2 44.8,55.2 		"/>
		<polygon class="st3" points="37.8,59.2 44.8,63.2 37.8,67.3 		"/>
		<polygon class="st3" points="44.8,71.3 37.8,67.3 44.8,63.2 		"/>
		<polygon class="st4" points="37.8,67.3 44.8,71.3 37.8,75.3 		"/>
		<polygon class="st3" points="44.8,79.3 37.8,75.3 44.8,71.3 		"/>
		<polygon class="st3" points="37.8,75.3 44.8,79.3 37.8,83.3 		"/>
		<polygon class="st6" points="44.8,87.3 37.8,83.3 44.8,79.3 		"/>
		<polygon class="st3" points="37.8,91.3 44.8,87.3 37.8,83.3 37.8,91.3 		"/>
		<polygon class="st5" points="44.8,91.3 44.8,87.3 37.8,91.3 		"/>
		<polygon class="st3" points="30.7,4.9 30.7,7.2 34.7,4.9 		"/>
		<polygon class="st5" points="34.7,4.9 30.7,7.2 37.8,11.2 37.8,4.9 		"/>
		<polygon class="st5" points="30.7,7.2 37.8,11.2 30.7,15.2 		"/>
		<polygon class="st6" points="37.8,19.2 30.7,15.2 37.8,11.2 		"/>
		<polygon class="st6" points="30.7,15.2 37.8,19.2 30.7,23.2 		"/>
		<polygon class="st3" points="37.8,27.2 30.7,23.2 37.8,19.2 		"/>
		<polygon class="st5" points="30.7,23.2 37.8,27.2 30.7,31.2 		"/>
		<polygon class="st6" points="37.8,35.2 30.7,31.2 37.8,27.2 		"/>
		<polygon class="st3" points="30.7,31.2 37.8,35.2 30.7,39.2 		"/>
		<polygon class="st3" points="37.8,43.2 30.7,39.2 37.8,35.2 		"/>
		<polygon class="st5" points="30.7,39.2 37.8,43.2 30.7,47.2 		"/>
		<polygon class="st5" points="37.8,51.2 30.7,47.2 37.8,43.2 		"/>
		<polygon class="st3" points="30.7,47.2 37.8,51.2 30.7,55.2 		"/>
		<polygon class="st4" points="37.8,59.2 30.7,55.2 37.8,51.2 		"/>
		<polygon class="st5" points="30.7,55.2 37.8,59.2 30.7,63.2 		"/>
		<polygon class="st3" points="37.8,67.3 30.7,63.2 37.8,59.2 		"/>
		<polygon class="st5" points="30.7,63.2 37.8,67.3 30.7,71.3 		"/>
		<polygon class="st3" points="37.8,75.3 30.7,71.3 37.8,67.3 		"/>
		<polygon class="st3" points="30.7,71.3 37.8,75.3 30.7,79.3 		"/>
		<polygon class="st3" points="37.8,83.3 30.7,79.3 37.8,75.3 		"/>
		<polygon class="st4" points="30.7,79.3 37.8,83.3 30.7,87.3 		"/>
		<polygon class="st3" points="37.8,91.3 37.8,83.3 30.7,87.3 37.7,91.3 		"/>
		<polygon class="st3" points="37.7,91.3 30.7,87.3 30.7,91.3 		"/>
		<polygon class="st3" points="26.8,4.9 30.7,7.2 30.7,4.9 		"/>
		<polygon class="st5" points="23.7,4.9 23.7,11.2 30.7,7.2 26.8,4.9 		"/>
		<polygon class="st3" points="30.7,15.2 23.7,11.2 30.7,7.2 		"/>
		<polygon class="st5" points="23.7,11.2 30.7,15.2 23.7,19.2 		"/>
		<polygon class="st3" points="30.7,23.2 23.7,19.2 30.7,15.2 		"/>
		<polygon class="st3" points="23.7,19.2 30.7,23.2 23.7,27.2 		"/>
		<polygon class="st3" points="30.7,31.2 23.7,27.2 30.7,23.2 		"/>
		<polygon class="st6" points="23.7,27.2 30.7,31.2 23.7,35.2 		"/>
		<polygon class="st6" points="30.7,39.2 23.7,35.2 30.7,31.2 		"/>
		<polygon class="st3" points="23.7,35.2 30.7,39.2 23.7,43.2 		"/>
		<polygon class="st6" points="30.7,47.2 23.7,43.2 30.7,39.2 		"/>
		<polygon class="st6" points="23.7,43.2 30.7,47.2 23.7,51.2 		"/>
		<polygon class="st4" points="30.7,55.2 23.7,51.2 30.7,47.2 		"/>
		<polygon class="st5" points="23.7,51.2 30.7,55.2 23.7,59.2 		"/>
		<polygon class="st6" points="30.7,63.2 23.7,59.2 30.7,55.2 		"/>
		<polygon class="st4" points="23.7,59.2 30.7,63.2 23.7,67.3 		"/>
		<polygon class="st4" points="30.7,71.3 23.7,67.3 30.7,63.2 		"/>
		<polygon class="st3" points="23.7,67.3 30.7,71.3 23.7,75.3 		"/>
		<polygon class="st3" points="30.7,79.3 23.7,75.3 30.7,71.3 		"/>
		<polygon class="st3" points="23.7,75.3 30.7,79.3 23.7,83.3 		"/>
		<polygon class="st4" points="30.7,87.3 23.7,83.3 30.7,79.3 		"/>
		<polygon class="st4" points="23.8,91.3 30.7,87.3 23.7,83.3 23.7,91.3 		"/>
		<polygon class="st4" points="30.7,91.3 30.7,87.3 23.8,91.3 		"/>
		<polygon class="st5" points="16.7,4.9 16.7,7.2 20.6,4.9 		"/>
		<polygon class="st5" points="20.6,4.9 16.7,7.2 23.7,11.2 23.7,4.9 		"/>
		<polygon class="st3" points="16.7,7.2 23.7,11.2 16.7,15.2 		"/>
		<polygon class="st5" points="23.7,19.2 16.7,15.2 23.7,11.2 		"/>
		<polygon class="st5" points="16.7,15.2 23.7,19.2 16.7,23.2 		"/>
		<polygon class="st3" points="23.7,27.2 16.7,23.2 23.7,19.2 		"/>
		<polygon class="st6" points="16.7,23.2 23.7,27.2 16.7,31.2 		"/>
		<polygon class="st4" points="23.7,35.2 16.7,31.2 23.7,27.2 		"/>
		<polygon class="st5" points="16.7,31.2 23.7,35.2 16.7,39.2 		"/>
		<polygon class="st6" points="23.7,43.2 16.7,39.2 23.7,35.2 		"/>
		<polygon class="st3" points="16.7,39.2 23.7,43.2 16.7,47.2 		"/>
		<polygon class="st6" points="23.7,51.2 16.7,47.2 23.7,43.2 		"/>
		<polygon class="st3" points="16.7,47.2 23.7,51.2 16.7,55.2 		"/>
		<polygon class="st3" points="23.7,59.2 16.7,55.2 23.7,51.2 		"/>
		<polygon class="st3" points="16.7,55.2 23.7,59.2 16.7,63.2 		"/>
		<polygon class="st3" points="23.7,67.3 16.7,63.2 23.7,59.2 		"/>
		<polygon class="st4" points="16.7,63.2 23.7,67.3 16.7,71.3 		"/>
		<polygon class="st3" points="23.7,75.3 16.7,71.3 23.7,67.3 		"/>
		<polygon class="st3" points="16.7,71.3 23.7,75.3 16.7,79.3 		"/>
		<polygon class="st3" points="23.7,83.3 16.7,79.3 23.7,75.3 		"/>
		<polygon class="st3" points="16.7,79.3 23.7,83.3 16.7,87.3 		"/>
		<polygon class="st5" points="23.7,91.3 23.7,83.3 16.7,87.3 23.7,91.3 		"/>
		<polygon class="st3" points="23.7,90.1 16.7,87.3 16.7,90.1 		"/>
		<polygon class="st5" points="13.6,5.4 16.7,7.2 16.7,4.9 		"/>
		<polygon class="st5" points="10.2,6.9 9.7,11.2 16.7,7.2 13.9,5.3 		"/>
		<polygon class="st3" points="16.7,15.2 9.7,11.2 16.7,7.2 		"/>
		<polygon class="st5" points="9.7,11.2 16.7,15.2 9.7,19.2 		"/>
		<polygon class="st3" points="16.7,23.2 9.7,19.2 16.7,15.2 		"/>
		<polygon class="st3" points="9.7,19.2 16.7,23.2 9.7,27.2 		"/>
		<polygon class="st3" points="16.7,31.2 9.7,27.2 16.7,23.2 		"/>
		<polygon class="st3" points="9.7,27.2 16.7,31.2 9.7,35.2 		"/>
		<polygon class="st6" points="16.7,39.2 9.7,35.2 16.7,31.2 		"/>
		<polygon class="st4" points="9.7,35.2 16.7,39.2 9.7,43.2 		"/>
		<polygon class="st5" points="16.7,47.2 9.7,43.2 16.7,39.2 		"/>
		<polygon class="st3" points="9.7,43.2 16.7,47.2 9.7,51.2 		"/>
		<polygon class="st3" points="16.7,55.2 9.7,51.2 16.7,47.2 		"/>
		<polygon class="st5" points="9.7,51.2 16.7,55.2 9.7,59.2 		"/>
		<polygon class="st5" points="16.7,63.2 9.7,59.2 16.7,55.2 		"/>
		<polygon class="st4" points="9.7,59.2 16.7,63.2 9.7,67.3 		"/>
		<polygon class="st5" points="16.7,71.3 9.7,67.3 16.7,63.2 		"/>
		<polygon class="st5" points="9.7,67.3 16.7,71.3 9.7,75.3 		"/>
		<polygon class="st3" points="16.7,79.3 9.7,75.3 16.7,71.3 		"/>
		<polygon class="st3" points="9.7,75.3 16.7,79.3 9.7,83.3 		"/>
		<polygon class="st6" points="16.7,87.3 9.7,83.3 16.7,79.3 		"/>
		<polygon class="st6" points="10.2,88.6 16.7,87.3 9.7,83.3 9.4,88.2 		"/>
		<path class="st5" d="M16.7,90v-2.8l-4.3,2.3c0,0,1.6,0.4,2.1,0.5C15,90.1,16.7,90,16.7,90z"/>
		<path class="st4" d="M9.7,19.2l-6.5-3.8c0,0,0.8-2.7,1.3-3.4C5,11.2,6.1,10,6.7,9.3c0.7-0.8,3.4-2.6,3.4-2.6L9.7,19.2z"/>
		<polygon class="st3" points="2.9,15.2 9.7,19.2 2.7,23.2 		"/>
		<polygon class="st3" points="9.7,27.2 2.7,23.2 9.7,19.2 		"/>
		<polygon class="st5" points="2.7,23.2 9.7,27.2 2.7,31.2 		"/>
		<polygon class="st5" points="9.7,35.2 2.7,31.2 9.7,27.2 		"/>
		<polygon class="st3" points="2.7,31.2 9.7,35.2 2.7,39.2 		"/>
		<polygon class="st3" points="9.7,43.2 2.7,39.2 9.7,35.2 		"/>
		<polygon class="st5" points="2.7,39.2 9.7,43.2 2.7,47.2 		"/>
		<polygon class="st3" points="9.7,51.2 2.7,47.2 9.7,43.2 		"/>
		<polygon class="st6" points="2.7,47.2 9.7,51.2 2.7,55.2 		"/>
		<polygon class="st4" points="9.7,59.2 2.7,55.2 9.7,51.2 		"/>
		<polygon class="st3" points="2.7,55.2 9.7,59.2 2.7,63.2 		"/>
		<polygon class="st6" points="9.7,67.3 2.7,63.2 9.7,59.2 		"/>
		<polygon class="st3" points="2.7,63.2 9.7,67.3 2.7,71.3 		"/>
		<polygon class="st5" points="9.7,75.3 2.7,71.3 9.7,67.3 		"/>
		<polygon class="st5" points="2.7,71.3 9.7,75.3 2.7,79.3 		"/>
		<polygon class="st5" points="9.7,83.3 2.7,79.3 9.7,75.3 		"/>
		<polygon class="st5" points="2.7,79.3 9.7,83.3 4.7,84.2 		"/>
		<path class="st4" d="M9.4,88.2l0.2-5l-4.6,1c0,0,0.8,1,1.3,1.6C7.3,86.9,9.4,88.2,9.4,88.2z"/>
	</g>
	<g>
		<path class="st7" d="M30.6,78.8c0,8.5-5.1,13.3-13.5,13.3c-7.2,0-14.8-3.1-16.7-9c-0.9-2.6,1.2-5.4,3.9-6c2.8-0.5,4.7,1.4,6,4
			c1.4,2.6,2.6,3.1,5.1,3.1c2.9,0,5.2-2.3,5.2-5.3c0-2.9-2.3-5.2-5.2-5.2c-4.1,0-7.9-1.6-10.8-4.5C1.5,66.3,0,62.4,0,58.3
			C0,49.9,6.8,43,15.3,43c7.1,0,13.7,4.9,14.7,10.6c0.5,2.8-1.1,5.5-3.9,6c-2.8,0.6-5.1-1.2-6-3.8c-0.6-1.6-2.3-2.8-4.8-2.8
			c-2.9,0-5.2,2.3-5.2,5.2c0,2.9,2.3,5.2,5.2,5.2c4.1,0,7.9,1.6,10.8,4.5C29,71,30.6,74.7,30.6,78.8z"/>
	</g>
	<g>
		<g>
			<path class="st8" d="M88.4,61.4v22.2c0,3.3-2.4,5.7-5.7,5.7c-2.3,0-5.4-2.4-5.4-5.7c-4.9,4.1-10.3,5.7-16.8,5.7
				c-16,0-28.7-11.9-28.7-27.9c0-16,12.7-28.7,28.7-28.7C76.5,32.7,88.4,45.4,88.4,61.4z M77.3,61.4c0-9.5-7.3-17.6-16.8-17.6
				c-9.5,0-17.6,8.1-17.6,17.6c0,9.5,8.1,16.8,17.6,16.8C70,78.2,77.3,71,77.3,61.4z"/>
		</g>
	</g>
	<g class="st9">
		<polygon class="st10" points="77.8,44.8 84.8,48.8 77.8,52.8 		"/>
		<polygon class="st10" points="85.5,57.3 78.4,53.3 85.5,49.3 		"/>
		<polygon class="st11" points="83.8,52.8 87.9,56 83.8,60.8 		"/>
		<polygon class="st11" points="86.3,64 79.2,60 86.3,56 		"/>
		<polygon class="st11" points="80.9,60.8 87.9,64.8 80.9,68.8 		"/>
		<polygon class="st8" points="87.4,71.3 80.4,67.3 87.4,63.2 		"/>
		<polygon class="st10" points="80.9,68.5 87.9,72.5 80.9,76.5 		"/>
		<polygon class="st11" points="87.9,80.1 80.9,76.1 87.9,72.1 		"/>
		<polygon class="st8" points="80.1,74.4 87.2,78.4 80.1,82.4 		"/>
		<path class="st8" d="M84.9,84.7l-4-2.3l7.1-4c0,0-0.9,2.8-1.3,3.7C86.3,82.8,84.9,84.7,84.9,84.7z"/>
		<polygon class="st11" points="83.5,88.9 85.5,87.9 87.5,85.9 83.5,83.6 83.5,88.9 		"/>
		<polygon class="st10" points="75.4,38.8 78.4,40.8 76.8,40.8 		"/>
		<polygon class="st10" points="82.4,44.4 76.8,40.8 78.4,40.2 		"/>
		<polygon class="st11" points="74.9,40.8 82,44.8 74.9,48.8 		"/>
		<polygon class="st10" points="83.8,52.8 76.8,48.8 82.8,45.4 		"/>
		<polygon class="st11" points="76.8,48.8 83.8,52.8 76.8,56.8 		"/>
		<polygon class="st11" points="83.8,60.8 76.8,56.8 83.8,52.8 		"/>
		<polygon class="st10" points="78.9,58.5 83.8,60.8 77.8,63.2 		"/>
		<polygon class="st8" points="83.8,68.8 76.8,64.8 83.8,60.8 		"/>
		<polygon class="st10" points="76.8,64.8 83.8,68.8 76.8,72.8 		"/>
		<polygon class="st11" points="83.8,76.9 76.8,72.8 83.8,68.8 		"/>
		<polygon class="st12" points="76.8,72.8 83.8,76.9 76.8,80.9 		"/>
		<polygon class="st10" points="83.8,84.9 76.8,80.9 83.8,76.9 		"/>
		<polygon class="st11" points="76.8,80.9 83.8,84.9 78.4,84.2 		"/>
		<polygon class="st10" points="83.3,86.9 83.8,84.9 79.6,87.3 83.7,88.2 		"/>
		<polygon class="st10" points="69.3,34.6 72.8,36.2 69.7,36.8 		"/>
		<polygon class="st11" points="76.8,40.8 69.7,36.8 75.4,37.3 		"/>
		<polygon class="st8" points="69.7,36.8 76.8,40.8 69.7,44.8 		"/>
		<polygon class="st10" points="76.8,48.8 69.7,44.8 76.8,40.8 		"/>
		<polygon class="st10" points="69.7,44.8 76.8,48.8 71.6,48.1 		"/>
		<polygon class="st11" points="76.8,56.8 75.4,52.8 76.8,48.8 		"/>
		<polygon class="st10" points="76.8,72.8 75.4,70.5 76.8,65.2 		"/>
		<polygon class="st10" points="72.8,73.5 76.8,72.8 69.7,76.9 		"/>
		<polygon class="st8" points="76.8,80.9 69.7,76.9 76.8,72.8 		"/>
		<polygon class="st12" points="69.7,76.9 76.8,80.9 69.7,84.9 		"/>
		<polygon class="st8" points="75.4,84.9 69.7,84.9 76.8,80.9 		"/>
		<polygon class="st11" points="69.3,87.3 72.8,85.7 69.7,84.9 69.3,87.3 		"/>
		<polygon class="st10" points="69.7,36.8 62.6,32.8 68.1,34.2 		"/>
		<polygon class="st8" points="62.6,32.8 69.7,36.8 62.6,40.8 		"/>
		<polygon class="st10" points="69.7,44.8 62.6,40.8 69.7,36.8 		"/>
		<polygon class="st8" points="62.6,40.8 69.7,44.8 64,44 		"/>
		<polygon class="st10" points="70.6,47.2 68.1,45.7 69.7,44.8 		"/>
		<polygon class="st10" points="65.3,78 69.7,76.9 62.6,80.9 		"/>
		<polygon class="st11" points="69.7,84.9 62.6,80.9 69.7,76.9 		"/>
		<polygon class="st10" points="62.6,80.9 69.7,84.9 62.6,88.9 		"/>
		<polygon class="st8" points="68.9,87.3 69.7,84.9 62.6,88.9 68.1,87.8 		"/>
		<polygon class="st10" points="55.4,33.9 62.6,32.8 55.6,36.8 		"/>
		<polygon class="st11" points="62.6,40.8 55.6,36.8 62.6,32.8 		"/>
		<polygon class="st11" points="55.6,36.8 62.6,40.8 55.6,44.8 		"/>
		<polygon class="st10" points="59.7,43.2 55.6,44 62.6,40.8 		"/>
		<polygon class="st10" points="62.6,80.9 55.7,78.2 61.4,78.9 		"/>
		<polygon class="st12" points="55.7,78.2 62.6,80.9 55.6,84.9 		"/>
		<polygon class="st11" points="62.6,88.9 55.6,84.9 62.6,80.9 		"/>
		<polygon class="st8" points="57.5,88.2 62.6,88.9 55.6,84.9 56.5,88.2 		"/>
		<polygon class="st10" points="55.6,36.8 50.7,35.2 55.6,34.6 		"/>
		<polygon class="st8" points="49.7,35.2 55.6,36.8 48.5,40.8 		"/>
		<polygon class="st10" points="55.6,44.8 48.5,40.8 55.6,36.8 		"/>
		<polygon class="st10" points="48.5,40.8 53,44.8 48.5,48.8 		"/>
		<polygon class="st10" points="48.1,74.8 54.1,78.2 48.5,80.9 		"/>
		<polygon class="st11" points="55.6,84.9 48.5,80.9 55.1,78.2 		"/>
		<polygon class="st10" points="48.1,78.9 55.2,82.9 48.5,86 		"/>
		<polygon class="st8" points="55.2,88.2 55.2,80.2 48.1,84.2 55.1,88.2 		"/>
		<polygon class="st10" points="48.5,40.8 45.1,40.3 53,39.8 		"/>
		<polygon class="st10" points="41.4,42 48.5,46 41.4,50 		"/>
		<polygon class="st11" points="48.5,48.8 41.4,44.8 48.5,40.8 		"/>
		<polygon class="st8" points="41.4,44.8 48.5,48.8 41.4,52.8 		"/>
		<polygon class="st10" points="44.3,53.3 41.4,52.8 48.5,48.8 		"/>
		<polygon class="st10" points="41.4,52.8 43.4,56.8 41.4,60.8 		"/>
		<polygon class="st10" points="42.9,62 41.4,60.8 42.9,60 		"/>
		<polygon class="st11" points="41.4,60.8 42.9,64.5 41.4,68.8 		"/>
		<polygon class="st10" points="46.9,73.8 41.4,68.8 42.9,68 		"/>
		<polygon class="st8" points="41.4,68.8 46.9,72.8 41.4,76.9 		"/>
		<polygon class="st8" points="48.5,80.9 41.4,76.9 48.1,74.1 		"/>
		<polygon class="st10" points="41.4,76.9 48.5,80.9 42.9,82.9 		"/>
		<polygon class="st8" points="51.7,86.4 44.6,82.4 51.7,78.4 		"/>
		<polygon class="st10" points="45,50.3 37.9,46.3 45,42.3 		"/>
		<polygon class="st10" points="37.9,44.8 45,48.8 37.9,52.8 		"/>
		<polygon class="st10" points="41.4,52.8 34.4,48.8 41.4,44.8 		"/>
		<polygon class="st8" points="34.4,48.8 41.4,52.8 34.4,56.8 		"/>
		<polygon class="st11" points="41.4,60.8 34.4,56.8 41.4,52.8 		"/>
		<polygon class="st11" points="34.4,56.8 41.4,60.8 34.4,64.8 		"/>
		<polygon class="st8" points="41.4,68.8 34.4,64.8 41.4,60.8 		"/>
		<polygon class="st10" points="34.4,64.8 41.4,68.8 34.4,72.8 		"/>
		<polygon class="st11" points="41.4,76.9 34.4,72.8 41.4,68.8 		"/>
		<polygon class="st10" points="37.1,69.8 44.2,73.8 37.1,77.8 		"/>
		<polygon class="st11" points="46.4,84.2 39.4,80.2 46.4,76.2 		"/>
		<polygon class="st10" points="40.2,57.3 33.1,53.3 40.2,49.3 		"/>
		<polygon class="st10" points="33.1,54.5 40.2,58.5 33.1,62.5 		"/>
		<polygon class="st10" points="39.4,66 32.3,62 39.4,58 		"/>
		<polygon class="st10" points="32.7,58.9 39.8,62.9 32.7,66.9 		"/>
		<polygon class="st10" points="39.4,70.9 32.3,66.9 39.4,62.9 		"/>
		<polygon class="st10" points="34.4,64.5 41.4,68.5 34.4,72.5 		"/>
		<polygon class="st10" points="39.4,76.5 33.9,72.1 39.4,68.5 		"/>
	</g>
</g>
</svg>
